<svg xmlns="http://www.w3.org/2000/svg" xmlns:xlink="http://www.w3.org/1999/xlink" xmlns:inkscape="http://www.inkscape.org/namespaces/inkscape" viewBox="0 0 1080 300" width="1080" height="300">
<defs>
    <radialGradient id="sun" inkscape:label="Sun Gradient" cx="300.0" cy="352.0" r="250.0" gradientUnits="userSpaceOnUse">
      <stop offset="0.0" stop-color="#FFF4B0"/>
      <stop offset="0.22" stop-color="#FFE96E"/>
      <stop offset="0.4" stop-color="#F79A12"/>
      <stop offset="0.56" stop-color="#D24A0C"/>
      <stop offset="0.74" stop-color="#8E1410"/>
      <stop offset="1.0" stop-color="#360505"/>
    </radialGradient>
    <radialGradient id="core" inkscape:label="Core Gradient" cx="300.0" cy="352.0" r="54" gradientUnits="userSpaceOnUse">
      <stop offset="0.0" stop-color="#FFEC92"/>
      <stop offset="0.55" stop-color="#FFDA62"/>
      <stop offset="1.0" stop-color="#FFC230"/>
    </radialGradient>
    <radialGradient id="irisCore" cx="300.0" cy="345.0" r="22" gradientUnits="userSpaceOnUse">
      <stop offset="0.0" stop-color="#FFFFFF" stop-opacity="1.0"/>
      <stop offset="0.48" stop-color="#FFFFFF" stop-opacity="1.0"/>
      <stop offset="0.74" stop-color="#FFF2C4" stop-opacity="0.6"/>
      <stop offset="1.0" stop-color="#FFE69A" stop-opacity="0.0"/>
    </radialGradient>
    <clipPath id="discClip"><path d="M 254.0 352.0 A 46 46 0 0 1 346.0 352.0 Z"/></clipPath>
  </defs>
  <g inkscape:label="Sun Mark Left" transform="translate(-18,10) scale(0.60)">
    <g inkscape:groupmode="layer" inkscape:label="Sun Mark" id="layer-mark">
    <g inkscape:label="Rays" id="rays">
      <path id="ray-0" d="M 355.46 344.21 L 424.05 329.90 L 549.55 316.93 L 425.33 339.05 Z" fill="url(#sun)"/>
      <path id="ray-1" d="M 352.04 331.32 L 386.82 311.02 L 456.13 289.97 L 391.27 322.23 Z" fill="url(#sun)"/>
      <path id="ray-2" d="M 345.68 319.61 L 400.05 275.41 L 505.58 206.26 L 405.39 282.95 Z" fill="url(#sun)"/>
      <path id="ray-3" d="M 336.74 309.74 L 358.31 275.74 L 410.22 225.21 L 367.41 283.65 Z" fill="url(#sun)"/>
      <path id="ray-4" d="M 325.71 302.25 L 353.71 238.02 L 415.71 128.14 L 361.92 242.26 Z" fill="url(#sun)"/>
      <path id="ray-5" d="M 313.23 297.59 L 316.78 257.48 L 339.69 188.76 L 328.49 260.33 Z" fill="url(#sun)"/>
      <path id="ray-6" d="M 300.00 296.00 L 295.38 226.08 L 300.00 100.00 L 304.62 226.08 Z" fill="url(#sun)"/>
      <path id="ray-7" d="M 286.77 297.59 L 271.51 260.33 L 260.31 188.76 L 283.22 257.48 Z" fill="url(#sun)"/>
      <path id="ray-8" d="M 274.29 302.25 L 238.08 242.26 L 184.29 128.14 L 246.29 238.02 Z" fill="url(#sun)"/>
      <path id="ray-9" d="M 263.26 309.74 L 232.59 283.65 L 189.78 225.21 L 241.69 275.74 Z" fill="url(#sun)"/>
      <path id="ray-10" d="M 254.32 319.61 L 194.61 282.95 L 94.42 206.26 L 199.95 275.41 Z" fill="url(#sun)"/>
      <path id="ray-11" d="M 247.96 331.32 L 208.73 322.23 L 143.87 289.97 L 213.18 311.02 Z" fill="url(#sun)"/>
      <path id="ray-12" d="M 244.54 344.21 L 174.67 339.05 L 50.45 316.93 L 175.95 329.90 Z" fill="url(#sun)"/>
    </g>
    <path inkscape:label="Half Disc" id="half-disc" d="M 254.0 352.0 A 46 46 0 0 1 346.0 352.0 Z" fill="url(#core)"/>
    <g inkscape:label="Iris" id="iris" clip-path="url(#discClip)">
      <path d="M 256.0 352.0 A 44 44 0 0 1 344.0 352.0" fill="none" stroke="#8A3A12" stroke-width="1.0" stroke-opacity="0.30"/>
      <path d="M 297.0 352.0 C 297.0 337.0 299.0 325.0 300.0 325.0 C 301.0 325.0 303.0 337.0 303.0 352.0 Z" fill="url(#irisCore)"/>
    </g>
  </g>
  </g>
  <g inkscape:groupmode="layer" inkscape:label="Wordmark">
    <text x="360" y="150" fill="#F2D9A0" font-family="Montserrat, 'Segoe UI', Arial, sans-serif" font-weight="700" font-size="96" letter-spacing="4">HYPERION</text>
    <text x="362" y="218" fill="#F2D9A0" font-family="Montserrat, 'Segoe UI', Arial, sans-serif" font-weight="600" font-size="40" letter-spacing="20">ASTRONAUTICS</text>
  </g>
</svg>
